<svg width="206" height="48" fill="none" xmlns="http://www.w3.org/2000/svg"><path d="m184.809 16.46 9.731-9.113h2.373v5.269h8.118v6.455h-8.118v8.117c0 2.279 1.377 3.228 3.418 3.228.95 0 1.804-.285 2.753-.664l1.614 5.98a13.939 13.939 0 0 1-6.218 1.472c-5.601 0-8.972-3.228-8.972-8.212v-9.92h-4.699V16.46ZM160.295 36.879V1.426h7.405v12.81c1.851-1.376 3.94-1.993 6.123-1.993 5.222 0 9.636 3.513 9.636 10.063V36.88h-7.405V23.588c0-2.848-1.471-4.51-3.987-4.51-2.468 0-4.367 1.52-4.367 4.51v13.291h-7.405ZM130.248 24.245c0-7.073 4.937-12.247 11.535-12.247 2.611 0 4.936.997 6.74 2.706l.617-2.089h6.361V36.16c0 6.361-4.225 11.488-12.294 11.488-7.12 0-11.108-3.56-12.199-8.165l7.547-1.614c.617 2.231 2.421 3.086 4.557 3.086 3.323 0 4.984-1.757 4.984-4.367v-2.564c-1.709 1.472-3.892 2.326-6.313 2.326-6.598 0-11.535-5.126-11.535-12.104Zm7.737 0c0 3.323 1.994 5.506 5.032 5.506 3.038 0 5.079-2.183 5.079-5.506 0-3.276-2.041-5.412-5.079-5.412s-5.032 2.137-5.032 5.412ZM119.551 36.879v-23.11c5.31 0 7.47-2.101 7.47-2.101v25.21h-7.47ZM107.658 36.879V1.428h7.374v35.45h-7.374ZM85.219 16.46l9.73-9.113h2.374v5.269h8.117v6.455h-8.117v8.117c0 2.279 1.377 3.228 3.418 3.228.949 0 1.804-.285 2.753-.664l1.614 5.98a13.942 13.942 0 0 1-6.218 1.472c-5.602 0-8.972-3.228-8.972-8.212v-9.92h-4.7V16.46ZM72.092 11.998c7.548 0 13.054 5.364 13.054 12.627 0 7.262-5.506 12.579-13.054 12.579-7.5 0-13.006-5.317-13.006-12.58 0-7.262 5.506-12.626 13.006-12.626Zm0 6.836c-3.275 0-5.316 2.278-5.316 5.79 0 3.513 2.04 5.792 5.316 5.792 3.323 0 5.364-2.231 5.364-5.791 0-3.513-2.041-5.791-5.364-5.791ZM32.183 12.615h6.361l.617 2.231c1.709-1.804 4.035-2.848 6.883-2.848 6.74 0 11.915 5.364 11.915 12.627 0 7.262-5.175 12.579-11.915 12.579-2.61 0-4.794-.902-6.456-2.421v12.294h-7.405V12.615Zm12.722 6.219c-3.276 0-5.317 2.278-5.317 5.79 0 3.513 2.041 5.792 5.317 5.792 3.275 0 5.316-2.279 5.316-5.791 0-3.513-2.04-5.791-5.316-5.791ZM29.145 9.862l-7.927 2.278c-.76-2.943-2.753-4.794-6.218-4.794-3.418 0-5.554 1.376-5.554 3.797 0 2.896 3.465 3.37 7.548 4.177 5.553 1.092 12.246 2.943 12.246 10.49 0 7.026-5.743 11.393-14.193 11.393-8.022 0-13.29-3.418-15.047-10.016l8.212-2.373c.76 3.845 3.37 5.506 7.12 5.506 3.323 0 5.696-1.329 5.696-3.94 0-3.085-3.227-3.465-7.072-4.224-5.744-1.092-12.77-2.706-12.77-10.586C1.187 4.83 7.453.463 15.143.463c7.216 0 12.057 3.18 14.003 9.399ZM119.551 9.831V1.428h9.337c-.934 2.8-5.602 4.668-5.602 4.668h3.735s-.747 3.735-7.47 3.735ZM68.567 7.13V1.418h.968v2.239a1.53 1.53 0 0 1 1.08-.427c.808 0 1.501.549 1.501 1.6v2.3h-.96V4.982c0-.571-.327-.86-.776-.86-.404 0-.846.22-.846.86v2.147h-.967ZM66.356 7.206c-.852 0-1.523-.328-1.736-1.143l.983-.198c.076.396.358.564.754.564.388 0 .624-.152.624-.426 0-.29-.411-.328-.868-.412-.617-.099-1.34-.266-1.34-1.142 0-.708.67-1.219 1.591-1.219.86 0 1.379.381 1.6 1.059l-.953.198c-.076-.327-.304-.48-.647-.48-.38 0-.61.168-.61.396 0 .282.351.343.785.412.64.106 1.432.236 1.432 1.127 0 .723-.533 1.264-1.615 1.264ZM61.552 3.314V5.6c0 .48.274.724.754.724.373 0 .777-.206.777-.815V3.314h.96V7.13h-.861l-.046-.373c-.251.29-.579.45-1.097.45-.784 0-1.447-.511-1.447-1.516V3.314h.96ZM57.816 7.13V3.315h.9l.06.449c.22-.312.563-.518 1.043-.518.137 0 .229.015.381.053l-.114.945a1.495 1.495 0 0 0-.396-.054c-.51 0-.906.35-.906.968V7.13h-.968ZM51.47 7.13V3.314h.867l.054.373c.243-.274.548-.457.967-.457.45 0 .845.19 1.081.564.274-.335.632-.564 1.142-.564.747 0 1.356.51 1.356 1.485V7.13h-.96V4.792c0-.442-.243-.67-.609-.67-.342 0-.685.167-.685.67V7.13h-.96V4.792c0-.442-.243-.67-.609-.67-.335 0-.685.167-.685.67V7.13h-.96ZM48.925 7.206c-1.264 0-2.018-.83-2.018-1.965 0-1.158.815-2.01 1.973-2.01 1.12 0 1.896.753 1.896 1.85 0 .137-.015.29-.046.434h-2.84c.099.594.487.86 1.035.86.503 0 .792-.22.922-.548l.89.183c-.228.754-.89 1.196-1.812 1.196ZM48.88 4.03c-.442 0-.823.236-.96.746h1.843c-.084-.487-.396-.746-.883-.746ZM46.458 2.834l-1.051.275c-.114-.518-.488-.853-1.074-.853-.647 0-1.02.266-1.02.708 0 .525.593.64 1.264.792.883.19 1.896.472 1.896 1.69 0 1.082-.868 1.76-2.14 1.76-1.28 0-2.048-.587-2.33-1.63l1.058-.29c.16.701.625.99 1.28.99.594 0 1.066-.236 1.066-.791 0-.541-.579-.655-1.241-.8-.891-.19-1.935-.419-1.935-1.675 0-.975.937-1.668 2.11-1.668 1.12 0 1.865.533 2.117 1.492ZM36.248 3.314h1.066l1.066 2.567.93-2.567h1.012L38.22 8.805h-.99l.648-1.69-1.63-3.8ZM32.203 7.13V1.418h.967v2.3a1.585 1.585 0 0 1 1.158-.488c1.066 0 1.873.846 1.873 1.988 0 1.15-.807 1.988-1.873 1.988a1.58 1.58 0 0 1-1.196-.526l-.06.45h-.869Zm1.98-3.016c-.617 0-1.013.442-1.013 1.104 0 .67.396 1.112 1.013 1.112.617 0 1.02-.442 1.02-1.112 0-.662-.403-1.104-1.02-1.104Z" fill="#fff"/></svg>
